<svg width="37" height="32" viewBox="0 0 37 32" fill="none" xmlns="http://www.w3.org/2000/svg">
<path fill-rule="evenodd" clip-rule="evenodd" d="M34.4533 0.874843C34.1623 1.34484 31.4363 3.64984 28.3933 5.99684C23.8913 9.46984 22.5913 10.0388 21.4063 9.05584C20.6063 8.39084 19.4813 8.13784 18.9073 8.49284C17.1723 9.56484 17.7843 12.3578 20.4083 15.3408C23.2913 18.6188 26.5213 18.6048 26.0623 15.3158C25.8373 13.7028 27.1573 12.1078 31.3123 8.97084C35.3183 5.94584 36.8633 4.11684 36.8633 2.39984C36.8633 0.0618434 35.4923 -0.806157 34.4533 0.874843ZM7.28335 14.1648C6.13935 14.7198 4.38235 16.5638 3.37835 18.2628C1.75335 21.0148 1.73435 21.2828 3.20835 20.7178C5.61235 19.7948 5.23735 21.7868 2.36335 25.2018C-2.37865 30.8378 0.0283461 32.8298 9.46735 31.0848C15.7703 29.9198 17.3313 28.9498 19.4293 24.8918C21.4423 20.9998 21.2453 19.6608 18.1403 16.1228C15.2623 12.8428 11.4313 12.1518 7.28335 14.1648Z" fill="#EEEEEE"/>
</svg>
